HIERARCHY
ROOT Hips
{
	OFFSET 0.000000 0.000000 0.000000 
	CHANNELS 6 Xposition Yposition Zposition Zrotation Xrotation Yrotation
	JOINT LeftUpLeg
	{
		OFFSET 2.390000 -0.997500 0.003131 
		CHANNELS 3 Zrotation Xrotation Yrotation
		JOINT LeftUpLegRoll
		{
			OFFSET -0.008228 -5.368025 -0.050000 
			CHANNELS 3 Zrotation Xrotation Yrotation
			JOINT LeftLeg
			{
				OFFSET 0.008228 -5.304475 -0.040000 
				CHANNELS 3 Zrotation Xrotation Yrotation
				JOINT LeftLegRoll
				{
					OFFSET 0.008266 -8.023550 -0.789272 
					CHANNELS 3 Zrotation Xrotation Yrotation
					JOINT LeftFoot
					{
						OFFSET -0.008285 -2.447005 -0.176461 
						CHANNELS 3 Zrotation Xrotation Yrotation
						End Site
						{
							OFFSET -0.006362 -1.603547 3.533050 
						}
					}
				}
			}
		}
	}
	JOINT RightUpLeg
	{
		OFFSET -2.390000 -0.997500 0.003131 
		CHANNELS 3 Zrotation Xrotation Yrotation
		JOINT RightUpLegRoll
		{
			OFFSET 0.007500 -5.367500 -0.050000 
			CHANNELS 3 Zrotation Xrotation Yrotation
			JOINT RightLeg
			{
				OFFSET -0.007500 -5.305000 -0.040000 
				CHANNELS 3 Zrotation Xrotation Yrotation
				JOINT RightLegRoll
				{
					OFFSET 0.005000 -8.024050 -0.790258 
					CHANNELS 3 Zrotation Xrotation Yrotation
					JOINT RightFoot
					{
						OFFSET 0.020000 -2.446472 -0.175476 
						CHANNELS 3 Zrotation Xrotation Yrotation
						End Site
						{
							OFFSET 0.010000 -1.603528 3.533050 
						}
					}
				}
			}
		}
	}
	JOINT Spine
	{
		OFFSET 0.000000 2.857200 0.095838 
		CHANNELS 3 Zrotation Xrotation Yrotation
		JOINT Spine1
		{
			OFFSET 0.000000 3.491675 -0.016748 
			CHANNELS 3 Zrotation Xrotation Yrotation
			JOINT Spine2
			{
				OFFSET 0.000000 2.811225 -0.017190 
				CHANNELS 3 Zrotation Xrotation Yrotation
				JOINT Spine3
				{
					OFFSET 0.000000 3.297825 -0.158152 
					CHANNELS 3 Zrotation Xrotation Yrotation
					JOINT LeftShoulder
					{
						OFFSET 2.247500 -0.945430 -0.255617 
						CHANNELS 3 Zrotation Xrotation Yrotation
						JOINT LeftArm
						{
							OFFSET 2.422500 0.192500 0.242500 
							CHANNELS 3 Zrotation Xrotation Yrotation
							JOINT LeftArmRoll
							{
								OFFSET 3.011150 -0.056125 -0.149282 
								CHANNELS 3 Zrotation Xrotation Yrotation
								JOINT LeftForeArm
								{
									OFFSET 3.544950 0.021691 -0.254337 
									CHANNELS 3 Zrotation Xrotation Yrotation
									JOINT LeftForeArmRoll
									{
										OFFSET 3.242425 0.024099 -0.017220 
										CHANNELS 3 Zrotation Xrotation Yrotation
										End Site
										{
											OFFSET 3.371325 0.031393 -0.007218 
										}
									}
								}
							}
						}
					}
					JOINT RightShoulder
					{
						OFFSET -2.247500 -0.945430 -0.255617 
						CHANNELS 3 Zrotation Xrotation Yrotation
						JOINT RightArm
						{
							OFFSET -2.422500 0.192500 0.242500 
							CHANNELS 3 Zrotation Xrotation Yrotation
							JOINT RightArmRoll
							{
								OFFSET -3.062100 -0.062702 -0.132500 
								CHANNELS 3 Zrotation Xrotation Yrotation
								JOINT RightForeArm
								{
									OFFSET -3.498150 0.035499 -0.338573 
									CHANNELS 3 Zrotation Xrotation Yrotation
									JOINT RightForeArmRoll
									{
										OFFSET -3.278950 0.026904 0.120309 
										CHANNELS 3 Zrotation Xrotation Yrotation
										End Site
										{
											OFFSET -3.349925 0.018716 0.058049 
										}
									}
								}
							}
						}
					}
					JOINT Neck
					{
						OFFSET 0.000000 1.108613 -0.101302 
						CHANNELS 3 Zrotation Xrotation Yrotation
						End Site
						{
							OFFSET 0.000000 1.617325 0.410885 
						}
					}
				}
			}
		}
	}
}
MOTION
Frames: 6
Frame Time: 0.041667
-2.235840 24.412125 -6.113150 -3.660070 -7.395670 -22.563499 6.380010 -13.270900 -3.204030 0.000000 -0.000000 0.000000 -105.313004 75.290398 93.579803 0.000000 -0.000000 0.000000 31.741600 4.477040 5.856380 5.848390 3.577060 21.318100 0.000000 0.000000 0.000000 8.043760 14.305600 -0.775673 -0.000000 0.000000 0.000000 -0.173674 -7.986080 1.303330 -3.957540 -0.820769 4.073130 -0.000000 0.000000 -0.000000 0.000000 0.000000 -0.000000 0.000000 -0.000000 0.000000 -13.644700 -1.635410 -5.956860 -68.095596 28.692301 31.261499 0.000000 -0.000000 0.000000 -4.198180 -42.906898 -99.231903 -0.000000 0.000000 -0.000000 9.622740 -0.074680 5.349030 58.359901 60.267700 -3.998090 -0.000000 0.000000 0.000000 -46.362499 -48.683601 63.276798 -0.000000 0.000000 0.000000 0.000000 0.000000 0.000000 
-2.141700 24.164400 -6.377100 -4.642910 -4.180160 -21.545300 7.948780 -3.642820 -2.156880 0.000000 -0.000000 0.000000 -39.784302 68.244904 30.190100 0.000000 -0.000000 0.000000 30.184000 1.909190 8.160850 8.730000 -1.800050 22.740101 0.000000 0.000000 0.000000 8.991850 18.406700 -1.682840 -0.000000 0.000000 0.000000 -1.177650 -8.747380 0.880405 -2.433310 -0.584005 3.167140 -0.000000 0.000000 -0.000000 0.000000 0.000000 -0.000000 0.000000 -0.000000 0.000000 -12.331800 -1.618160 -6.335240 -67.365799 28.369801 29.465000 0.000000 -0.000000 0.000000 -0.075182 -44.526100 -100.641998 -0.000000 0.000000 -0.000000 9.516910 0.008814 4.618400 56.981098 58.676102 -2.172150 -0.000000 0.000000 0.000000 -46.787998 -48.904099 63.363098 -0.000000 0.000000 0.000000 0.000000 0.000000 0.000000 
-1.900357 23.870399 -6.801850 -4.868480 -0.234426 -18.666000 8.921250 4.318240 0.044543 0.000000 -0.000000 0.000000 -16.147900 47.364700 9.006040 0.000000 -0.000000 0.000000 23.262899 1.975820 6.392660 11.091200 -9.760310 24.949800 0.000000 0.000000 0.000000 10.948500 23.333401 -3.072980 -0.000000 0.000000 0.000000 -3.688510 -8.524770 -0.473845 -0.515290 -0.163419 1.923130 -0.000000 0.000000 -0.000000 0.000000 0.000000 -0.000000 0.000000 -0.000000 0.000000 -10.976000 -1.595790 -6.665730 -64.878899 27.642500 26.777399 0.000000 -0.000000 0.000000 3.687260 -45.906601 -99.639000 -0.000000 0.000000 -0.000000 9.156860 0.067922 3.905360 56.014400 55.863098 -0.965703 -0.000000 0.000000 0.000000 -46.938599 -49.104801 63.608700 -0.000000 0.000000 0.000000 0.000000 0.000000 0.000000 
-1.503428 23.619749 -7.344025 -4.292350 3.877160 -14.092100 8.089420 8.624380 1.182670 0.000000 -0.000000 0.000000 -7.939350 28.253599 2.945300 0.000000 -0.000000 0.000000 12.585200 2.118480 3.094140 10.881100 -18.024500 26.123100 0.000000 0.000000 0.000000 14.777300 27.779100 -5.717260 -0.000000 0.000000 0.000000 -7.834070 -7.113240 -2.447750 1.225160 0.148835 0.858297 -0.000000 0.000000 -0.000000 0.000000 0.000000 -0.000000 0.000000 -0.000000 0.000000 -9.523050 -1.599870 -7.108070 -61.668400 26.434601 23.925200 0.000000 -0.000000 0.000000 7.006570 -46.638599 -96.498596 -0.000000 0.000000 -0.000000 8.509170 0.148936 2.723140 53.529499 52.630798 0.559432 -0.000000 0.000000 0.000000 -47.331200 -49.167900 63.490101 -0.000000 0.000000 0.000000 0.000000 0.000000 0.000000 
-1.047070 23.449150 -7.938050 -3.300210 6.675140 -9.696610 6.943730 10.358300 2.913370 0.000000 -0.000000 0.000000 -4.489810 16.663300 1.124440 0.000000 -0.000000 0.000000 5.912060 1.471170 1.222780 9.254910 -25.566601 24.894899 0.000000 0.000000 0.000000 17.250401 30.673800 -7.451620 -0.000000 0.000000 0.000000 -10.183700 -5.791790 -3.478910 2.240360 0.410634 0.403060 -0.000000 0.000000 -0.000000 0.000000 0.000000 -0.000000 0.000000 -0.000000 0.000000 -8.422320 -1.635640 -7.784570 -59.673599 25.529100 21.942900 0.000000 -0.000000 0.000000 13.227200 -47.488800 -89.958397 -0.000000 0.000000 -0.000000 8.157240 0.249208 1.753490 49.913502 48.839100 1.573250 -0.000000 0.000000 0.000000 -46.755501 -49.341099 64.034599 -0.000000 0.000000 0.000000 0.000000 0.000000 0.000000 
-0.546815 23.288601 -8.592925 -2.148190 9.043600 -6.233130 5.138270 11.638700 4.736140 0.000000 -0.000000 0.000000 -2.714530 6.276050 0.539432 0.000000 -0.000000 0.000000 2.847520 0.099040 0.112507 6.286830 -31.441700 23.131500 0.000000 0.000000 0.000000 19.369200 33.125500 -9.120140 -0.000000 0.000000 0.000000 -11.689200 -4.982100 -4.101630 3.297940 0.678894 0.351258 -0.000000 0.000000 -0.000000 0.000000 0.000000 -0.000000 0.000000 -0.000000 0.000000 -7.917930 -1.686480 -8.267210 -58.744499 25.063499 21.029200 0.000000 -0.000000 0.000000 22.587799 -47.917900 -81.171204 -0.000000 0.000000 -0.000000 8.074270 0.323487 1.112880 44.533901 43.915699 2.067980 -0.000000 0.000000 0.000000 -45.792801 -49.059502 64.069901 -0.000000 0.000000 0.000000 0.000000 0.000000 0.000000 
